<svg width="80" height="80" viewBox="0 0 80 80" fill="none" xmlns="http://www.w3.org/2000/svg">
<g clip-path="url(#clip0_333_11)">
<path d="M79.9766 0H0.0234375C0.0104933 0 0 0.0104933 0 0.0234375V79.9766C0 79.9895 0.0104933 80 0.0234375 80H79.9766C79.9895 80 80 79.9895 80 79.9766V0.0234375C80 0.0104933 79.9895 0 79.9766 0Z" fill="#7289DA"/>
<path d="M54.0625 61.25L50.7812 57.3438C57.1875 55.625 59.6875 51.25 59.6875 51.25C51.5625 58.9062 29.375 59.2188 20.7812 51.25C20.7812 51.25 22.9688 55.3125 29.5312 57.3438L25.9375 61.25C15 61.0938 10.7812 53.75 10.7812 53.75C10.7812 37.5 17.9688 24.5312 17.9688 24.5312C25.3125 19.375 32.0312 19.375 32.0312 19.375L32.5 20C23.4375 22.5 19.5312 26.5625 19.5312 26.5625C30.1562 19.375 52.0312 20 60.625 26.5625C60.7812 26.4062 55.4688 22.1875 47.1875 20L47.9688 19.375C47.9688 19.375 54.6875 19.375 62.0312 24.5312C62.0312 24.5312 69.2188 37.5 69.2188 53.75C69.2188 53.75 65 61.0938 54.0625 61.25Z" fill="white"/>
<path d="M30.625 49.0625C33.4727 49.0625 35.7812 46.6141 35.7812 43.5938C35.7812 40.5734 33.4727 38.125 30.625 38.125C27.7773 38.125 25.4688 40.5734 25.4688 43.5938C25.4688 46.6141 27.7773 49.0625 30.625 49.0625Z" fill="#7289DA"/>
<path d="M48.75 49.0625C51.5977 49.0625 53.9062 46.6141 53.9062 43.5938C53.9062 40.5734 51.5977 38.125 48.75 38.125C45.9023 38.125 43.5938 40.5734 43.5938 43.5938C43.5938 46.6141 45.9023 49.0625 48.75 49.0625Z" fill="#7289DA"/>
</g>
<defs>
<clipPath id="clip0_333_11">
<rect width="80" height="80" rx="20" fill="white"/>
</clipPath>
</defs>
</svg>
