<svg width="32" height="32" viewBox="0 0 48 48" fill="none" xmlns="http://www.w3.org/2000/svg">
<path d="M12 24L11.6464 23.6464L11.2929 24L11.6464 24.3535L12 24ZM23.6464 11.6464L11.6464 23.6464L12.3536 24.3535L24.3536 12.3535L23.6464 11.6464ZM11.6464 24.3535L23.6464 36.3535L24.3536 35.6464L12.3536 23.6464L11.6464 24.3535Z" fill="#F2F2F2"/>
<path d="M24 24L23.6464 23.6464L23.2929 24L23.6464 24.3535L24 24ZM35.6464 11.6464L23.6464 23.6464L24.3536 24.3535L36.3536 12.3535L35.6464 11.6464ZM23.6464 24.3535L35.6464 36.3535L36.3536 35.6464L24.3536 23.6464L23.6464 24.3535Z" fill="#F2F2F2"/>
</svg>
