<svg width="32" height="32" viewBox="0 0 48 48" fill="none" xmlns="http://www.w3.org/2000/svg">
<path d="M36 24L36.3536 24.3536L36.7071 24L36.3536 23.6464L36 24ZM24.3536 36.3536L36.3536 24.3536L35.6464 23.6464L23.6464 35.6464L24.3536 36.3536ZM36.3536 23.6464L24.3536 11.6464L23.6464 12.3536L35.6464 24.3536L36.3536 23.6464Z" fill="#F2F2F2"/>
<path d="M24 24L24.3536 24.3536L24.7071 24L24.3536 23.6464L24 24ZM12.3536 36.3536L24.3536 24.3536L23.6464 23.6464L11.6464 35.6464L12.3536 36.3536ZM24.3536 23.6464L12.3536 11.6464L11.6464 12.3536L23.6464 24.3536L24.3536 23.6464Z" fill="#F2F2F2"/>
</svg>
