<svg width="32" height="32" viewBox="0 0 48 48" fill="none" xmlns="http://www.w3.org/2000/svg">
<path d="M24 28L23.6464 28.3536L24 28.7071L24.3536 28.3536L24 28ZM24.5 10C24.5 9.72386 24.2761 9.5 24 9.5C23.7239 9.5 23.5 9.72386 23.5 10L24.5 10ZM13.6464 18.3536L23.6464 28.3536L24.3536 27.6464L14.3536 17.6464L13.6464 18.3536ZM24.3536 28.3536L34.3536 18.3536L33.6464 17.6464L23.6464 27.6464L24.3536 28.3536ZM24.5 28L24.5 10L23.5 10L23.5 28L24.5 28Z" fill="#F2F2F2"/>
<path d="M10 32L10 34C10 36.2091 11.7909 38 14 38L34 38C36.2091 38 38 36.2091 38 34V32" stroke="#F2F2F2"/>
</svg>
